# xmcd
#
# Track frame offsets:
#	150
#	17678
#	35836
#	56987
#	75692
#	91881
#	109358
#	126719
#	145600
#	164707
#	182654
#
# Disc length: 2646 seconds
#
# Revision: 1
# Processed by: cddbd v1.5.2PL0 Copyright (c) Steve Scherf et al.
# Submitted via: audiograbber 1.83.01
#
DISCID=a00a540b
DTITLE=Barry Goudreau's Engine Room - Full Steam Ahead
DYEAR=2017
DGENRE=Blues
TTITLE0=Need
TTITLE1=Layin' It Down (In Beantown)
TTITLE2=Time
TTITLE3=Treat You Right
TTITLE4=Dirty
TTITLE5=Keep the Faith
TTITLE6=Don't Stop Please!
TTITLE7=Why
TTITLE8=Ball Keeps Rollin'
TTITLE9=Reason To Rhyme
TTITLE10=All Mne
EXTD=
EXTT0=
EXTT1=
EXTT2=
EXTT3=
EXTT4=
EXTT5=
EXTT6=
EXTT7=
EXTT8=
EXTT9=
EXTT10=
PLAYORDER=
